<svg xmlns="http://www.w3.org/2000/svg" viewBox="0 0 256 256" width="256" height="256">
  <defs>
    <linearGradient id="heat" x1="0" y1="0" x2="1" y2="1">
      <stop offset="0%" stop-color="#FFB15A"/>
      <stop offset="50%" stop-color="#FF7A00"/>
      <stop offset="100%" stop-color="#FF3B30"/>
    </linearGradient>
    <filter id="soft" x="-20%" y="-20%" width="140%" height="140%">
      <feGaussianBlur in="SourceGraphic" stdDeviation="0.6" />
    </filter>
  </defs>
  <rect width="256" height="256" rx="48" fill="url(#heat)"/>
  <g fill="#FFFFFF">
    <!-- Shield -->
    <path d="M128 44c26 16 41 20 56 24v57c0 50-33 78-56 89-23-11-56-39-56-89V68c15-4 30-8 56-24z" opacity="0.9"/>
    <!-- H letter -->
    <rect x="94" y="88" width="20" height="80" rx="8"/>
    <rect x="142" y="88" width="20" height="80" rx="8"/>
    <rect x="104" y="118" width="48" height="20" rx="10"/>
  </g>
  <!-- subtle inner glow -->
  <g opacity="0.25" filter="url(#soft)">
    <ellipse cx="128" cy="76" rx="70" ry="28" fill="#FFFFFF"/>
  </g>
</svg>

